solid ASCII
facet normal 0.000000e+00 -1.000000e+00 0.000000e+00
outer loop
vertex -7.600000e-002 -1.150000e-001 1.408344e-1017
vertex 7.600000e-0002 -1.150000e-001 1.408344e-1017
vertex -7.600000e-002 -1.150000e-001 6.000000e-0002
endloop
endfacet
facet normal 0.000000e+00 -1.000000e+00 0.000000e+00
outer loop
vertex -7.600000e-002 -1.150000e-001 6.000000e-0002
vertex 7.600000e-0002 -1.150000e-001 1.408344e-1017
vertex 7.600000e-0002 -1.150000e-001 6.000000e-0002
endloop
endfacet
facet normal -1.000000e+00 0.000000e+00 0.000000e+00
outer loop
vertex -7.600000e-002 1.150000e-0001 -1.408344e-017
vertex -7.600000e-002 -1.150000e-001 1.408344e-1017
vertex -7.600000e-002 1.150000e-0001 6.000000e-0002
endloop
endfacet
facet normal -1.000000e+00 -0.000000e+00 0.000000e+00
outer loop
vertex -7.600000e-002 1.150000e-0001 6.000000e-0002
vertex -7.600000e-002 -1.150000e-001 1.408344e-1017
vertex -7.600000e-002 -1.150000e-001 6.000000e-0002
endloop
endfacet
facet normal 0.000000e+00 1.000000e+00 -0.000000e+00
outer loop
vertex 7.600000e-0002 1.150000e-0001 -1.408344e-017
vertex -7.600000e-002 1.150000e-0001 -1.408344e-017
vertex 7.600000e-0002 1.150000e-0001 6.000000e-0002
endloop
endfacet
facet normal 0.000000e+00 1.000000e+00 0.000000e+00
outer loop
vertex 7.600000e-0002 1.150000e-0001 6.000000e-0002
vertex -7.600000e-002 1.150000e-0001 -1.408344e-017
vertex -7.600000e-002 1.150000e-0001 6.000000e-0002
endloop
endfacet
facet normal 1.000000e+00 -0.000000e+00 0.000000e+00
outer loop
vertex 7.600000e-0002 -1.150000e-001 1.408344e-1017
vertex 7.600000e-0002 1.150000e-0001 -1.408344e-017
vertex 7.600000e-0002 -1.150000e-001 6.000000e-0002
endloop
endfacet
facet normal 1.000000e+00 0.000000e+00 0.000000e+00
outer loop
vertex 7.600000e-0002 -1.150000e-001 6.000000e-0002
vertex 7.600000e-0002 1.150000e-0001 -1.408344e-017
vertex 7.600000e-0002 1.150000e-0001 6.000000e-0002
endloop
endfacet
facet normal 0.000000e+00 9.267949e-17 1.000000e+00
outer loop
vertex 7.600000e-0002 1.150000e-0001 6.000000e-0002
vertex -7.600000e-002 1.150000e-0001 6.000000e-0002
vertex 7.600000e-0002 -1.150000e-001 6.000000e-0002
endloop
endfacet
facet normal 0.000000e+00 9.267949e-17 1.000000e+00
outer loop
vertex 7.600000e-0002 -1.150000e-001 6.000000e-0002
vertex -7.600000e-002 1.150000e-0001 6.000000e-0002
vertex -7.600000e-002 -1.150000e-001 6.000000e-0002
endloop
endfacet
facet normal -0.000000e+00 -1.224647e-16 -1.000000e+00
outer loop
vertex 7.600000e-0002 -1.150000e-001 1.408344e-1017
vertex -7.600000e-002 -1.150000e-001 1.408344e-1017
vertex 7.600000e-0002 1.150000e-0001 -1.408344e-017
endloop
endfacet
facet normal -0.000000e+00 -1.224647e-16 -1.000000e+00
outer loop
vertex 7.600000e-0002 1.150000e-0001 -1.408344e-017
vertex -7.600000e-002 -1.150000e-001 1.408344e-1017
vertex -7.600000e-002 1.150000e-0001 -1.408344e-017
endloop
endfacet
endsolid
