solid ASCII
facet normal 0.000000e+00 -9.987955e-01 4.906767e-02
outer loop
vertex 1.260000e-0001 7.512038e-0002 1.745043e-0002
vertex 9.400000e-0002 7.512038e-0002 1.745043e-0002
vertex 1.260000e-0001 7.500000e-0002 1.500000e-0002
endloop
endfacet
facet normal 0.000000e+00 -9.987955e-01 4.906767e-02
outer loop
vertex 1.260000e-0001 7.500000e-0002 1.500000e-0002
vertex 9.400000e-0002 7.512038e-0002 1.745043e-0002
vertex 9.400000e-0002 7.500000e-0002 1.500000e-0002
endloop
endfacet
facet normal -0.000000e+00 -9.987955e-01 -4.906767e-02
outer loop
vertex 1.260000e-0001 7.500000e-0002 1.500000e-0002
vertex 9.400000e-0002 7.500000e-0002 1.500000e-0002
vertex 1.260000e-0001 7.512038e-0002 1.254957e-0002
endloop
endfacet
facet normal -0.000000e+00 -9.987955e-01 -4.906767e-02
outer loop
vertex 1.260000e-0001 7.512038e-0002 1.254957e-0002
vertex 9.400000e-0002 7.500000e-0002 1.500000e-0002
vertex 9.400000e-0002 7.512038e-0002 1.254957e-0002
endloop
endfacet
facet normal -0.000000e+00 -9.891765e-01 -1.467305e-01
outer loop
vertex 1.260000e-0001 7.512038e-0002 1.254957e-0002
vertex 9.400000e-0002 7.512038e-0002 1.254957e-0002
vertex 1.260000e-0001 7.548037e-0002 1.012274e-0002
endloop
endfacet
facet normal -0.000000e+00 -9.891765e-01 -1.467305e-01
outer loop
vertex 1.260000e-0001 7.548037e-0002 1.012274e-0002
vertex 9.400000e-0002 7.512038e-0002 1.254957e-0002
vertex 9.400000e-0002 7.548037e-0002 1.012274e-0002
endloop
endfacet
facet normal -0.000000e+00 -9.700313e-01 -2.429802e-01
outer loop
vertex 1.260000e-0001 7.548037e-0002 1.012274e-0002
vertex 9.400000e-0002 7.548037e-0002 1.012274e-0002
vertex 1.260000e-0001 7.607649e-0002 7.742883e-0003
endloop
endfacet
facet normal -0.000000e+00 -9.700313e-01 -2.429802e-01
outer loop
vertex 1.260000e-0001 7.607649e-0002 7.742883e-0003
vertex 9.400000e-0002 7.548037e-0002 1.012274e-0002
vertex 9.400000e-0002 7.607649e-0002 7.742883e-0003
endloop
endfacet
facet normal -0.000000e+00 -9.415441e-01 -3.368899e-01
outer loop
vertex 1.260000e-0001 7.607649e-0002 7.742883e-0003
vertex 9.400000e-0002 7.607649e-0002 7.742883e-0003
vertex 1.260000e-0001 7.690301e-0002 5.432914e-0003
endloop
endfacet
facet normal -0.000000e+00 -9.415441e-01 -3.368899e-01
outer loop
vertex 1.260000e-0001 7.690301e-0002 5.432914e-0003
vertex 9.400000e-0002 7.607649e-0002 7.742883e-0003
vertex 9.400000e-0002 7.690301e-0002 5.432914e-0003
endloop
endfacet
facet normal -0.000000e+00 -9.039893e-01 -4.275551e-01
outer loop
vertex 1.260000e-0001 7.690301e-0002 5.432914e-0003
vertex 9.400000e-0002 7.690301e-0002 5.432914e-0003
vertex 1.260000e-0001 7.795197e-0002 3.215082e-0003
endloop
endfacet
facet normal -0.000000e+00 -9.039893e-01 -4.275551e-01
outer loop
vertex 1.260000e-0001 7.795197e-0002 3.215082e-0003
vertex 9.400000e-0002 7.690301e-0002 5.432914e-0003
vertex 9.400000e-0002 7.795197e-0002 3.215082e-0003
endloop
endfacet
facet normal -0.000000e+00 -8.577286e-01 -5.141027e-01
outer loop
vertex 1.260000e-0001 7.795197e-0002 3.215082e-0003
vertex 9.400000e-0002 7.795197e-0002 3.215082e-0003
vertex 1.260000e-0001 7.921326e-0002 1.110744e-0003
endloop
endfacet
facet normal -0.000000e+00 -8.577286e-01 -5.141027e-01
outer loop
vertex 1.260000e-0001 7.921326e-0002 1.110744e-0003
vertex 9.400000e-0002 7.795197e-0002 3.215082e-0003
vertex 9.400000e-0002 7.921326e-0002 1.110744e-0003
endloop
endfacet
facet normal -0.000000e+00 -8.032075e-01 -5.956993e-01
outer loop
vertex 1.260000e-0001 7.921326e-0002 1.110744e-0003
vertex 9.400000e-0002 7.921326e-0002 1.110744e-0003
vertex 1.260000e-0001 8.067474e-0002 -8.598321e-004
endloop
endfacet
facet normal -0.000000e+00 -8.032075e-01 -5.956993e-01
outer loop
vertex 1.260000e-0001 8.067474e-0002 -8.598321e-004
vertex 9.400000e-0002 7.921326e-0002 1.110744e-0003
vertex 9.400000e-0002 8.067474e-0002 -8.598321e-004
endloop
endfacet
facet normal -0.000000e+00 -7.409511e-01 -6.715590e-01
outer loop
vertex 1.260000e-0001 8.067474e-0002 -8.598321e-004
vertex 9.400000e-0002 8.067474e-0002 -8.598321e-004
vertex 1.260000e-0001 8.232233e-0002 -2.677670e-003
endloop
endfacet
facet normal -0.000000e+00 -7.409511e-01 -6.715590e-01
outer loop
vertex 1.260000e-0001 8.232233e-0002 -2.677670e-003
vertex 9.400000e-0002 8.067474e-0002 -8.598321e-004
vertex 9.400000e-0002 8.232233e-0002 -2.677670e-003
endloop
endfacet
facet normal -0.000000e+00 -6.715590e-01 -7.409511e-01
outer loop
vertex 1.260000e-0001 8.232233e-0002 -2.677670e-003
vertex 9.400000e-0002 8.232233e-0002 -2.677670e-003
vertex 1.260000e-0001 8.414017e-0002 -4.325261e-003
endloop
endfacet
facet normal -0.000000e+00 -6.715590e-01 -7.409511e-01
outer loop
vertex 1.260000e-0001 8.414017e-0002 -4.325261e-003
vertex 9.400000e-0002 8.232233e-0002 -2.677670e-003
vertex 9.400000e-0002 8.414017e-0002 -4.325261e-003
endloop
endfacet
facet normal -0.000000e+00 -5.956993e-01 -8.032075e-01
outer loop
vertex 1.260000e-0001 8.414017e-0002 -4.325261e-003
vertex 9.400000e-0002 8.414017e-0002 -4.325261e-003
vertex 1.260000e-0001 8.611074e-0002 -5.786740e-003
endloop
endfacet
facet normal -0.000000e+00 -5.956993e-01 -8.032075e-01
outer loop
vertex 1.260000e-0001 8.611074e-0002 -5.786740e-003
vertex 9.400000e-0002 8.414017e-0002 -4.325261e-003
vertex 9.400000e-0002 8.611074e-0002 -5.786740e-003
endloop
endfacet
facet normal -0.000000e+00 -5.141027e-01 -8.577286e-01
outer loop
vertex 1.260000e-0001 8.611074e-0002 -5.786740e-003
vertex 9.400000e-0002 8.611074e-0002 -5.786740e-003
vertex 1.260000e-0001 8.821508e-0002 -7.048032e-003
endloop
endfacet
facet normal -0.000000e+00 -5.141027e-01 -8.577286e-01
outer loop
vertex 1.260000e-0001 8.821508e-0002 -7.048032e-003
vertex 9.400000e-0002 8.611074e-0002 -5.786740e-003
vertex 9.400000e-0002 8.821508e-0002 -7.048032e-003
endloop
endfacet
facet normal -0.000000e+00 -4.275551e-01 -9.039893e-01
outer loop
vertex 1.260000e-0001 8.821508e-0002 -7.048032e-003
vertex 9.400000e-0002 8.821508e-0002 -7.048032e-003
vertex 1.260000e-0001 9.043291e-0002 -8.096988e-003
endloop
endfacet
facet normal -0.000000e+00 -4.275551e-01 -9.039893e-01
outer loop
vertex 1.260000e-0001 9.043291e-0002 -8.096988e-003
vertex 9.400000e-0002 8.821508e-0002 -7.048032e-003
vertex 9.400000e-0002 9.043291e-0002 -8.096988e-003
endloop
endfacet
facet normal -0.000000e+00 -3.368899e-01 -9.415441e-01
outer loop
vertex 1.260000e-0001 9.043291e-0002 -8.096988e-003
vertex 9.400000e-0002 9.043291e-0002 -8.096988e-003
vertex 1.260000e-0001 9.274288e-0002 -8.923508e-003
endloop
endfacet
facet normal -0.000000e+00 -3.368899e-01 -9.415441e-01
outer loop
vertex 1.260000e-0001 9.274288e-0002 -8.923508e-003
vertex 9.400000e-0002 9.043291e-0002 -8.096988e-003
vertex 9.400000e-0002 9.274288e-0002 -8.923508e-003
endloop
endfacet
facet normal -0.000000e+00 -2.429802e-01 -9.700313e-01
outer loop
vertex 1.260000e-0001 9.274288e-0002 -8.923508e-003
vertex 9.400000e-0002 9.274288e-0002 -8.923508e-003
vertex 1.260000e-0001 9.512274e-0002 -9.519632e-003
endloop
endfacet
facet normal -0.000000e+00 -2.429802e-01 -9.700313e-01
outer loop
vertex 1.260000e-0001 9.512274e-0002 -9.519632e-003
vertex 9.400000e-0002 9.274288e-0002 -8.923508e-003
vertex 9.400000e-0002 9.512274e-0002 -9.519632e-003
endloop
endfacet
facet normal -0.000000e+00 -1.467305e-01 -9.891765e-01
outer loop
vertex 1.260000e-0001 9.512274e-0002 -9.519632e-003
vertex 9.400000e-0002 9.512274e-0002 -9.519632e-003
vertex 1.260000e-0001 9.754957e-0002 -9.879618e-003
endloop
endfacet
facet normal -0.000000e+00 -1.467305e-01 -9.891765e-01
outer loop
vertex 1.260000e-0001 9.754957e-0002 -9.879618e-003
vertex 9.400000e-0002 9.512274e-0002 -9.519632e-003
vertex 9.400000e-0002 9.754957e-0002 -9.879618e-003
endloop
endfacet
facet normal -0.000000e+00 -4.906767e-02 -9.987955e-01
outer loop
vertex 1.260000e-0001 9.754957e-0002 -9.879618e-003
vertex 9.400000e-0002 9.754957e-0002 -9.879618e-003
vertex 1.260000e-0001 1.000000e-0001 -1.000000e-002
endloop
endfacet
facet normal -0.000000e+00 -4.906767e-02 -9.987955e-01
outer loop
vertex 1.260000e-0001 1.000000e-0001 -1.000000e-002
vertex 9.400000e-0002 9.754957e-0002 -9.879618e-003
vertex 9.400000e-0002 1.000000e-0001 -1.000000e-002
endloop
endfacet
facet normal 0.000000e+00 4.906767e-02 -9.987955e-01
outer loop
vertex 1.260000e-0001 1.000000e-0001 -1.000000e-002
vertex 9.400000e-0002 1.000000e-0001 -1.000000e-002
vertex 1.260000e-0001 1.024504e-0001 -9.879618e-003
endloop
endfacet
facet normal 0.000000e+00 4.906767e-02 -9.987955e-01
outer loop
vertex 1.260000e-0001 1.024504e-0001 -9.879618e-003
vertex 9.400000e-0002 1.000000e-0001 -1.000000e-002
vertex 9.400000e-0002 1.024504e-0001 -9.879618e-003
endloop
endfacet
facet normal 0.000000e+00 1.467305e-01 -9.891765e-01
outer loop
vertex 1.260000e-0001 1.024504e-0001 -9.879618e-003
vertex 9.400000e-0002 1.024504e-0001 -9.879618e-003
vertex 1.260000e-0001 1.048773e-0001 -9.519632e-003
endloop
endfacet
facet normal 0.000000e+00 1.467305e-01 -9.891765e-01
outer loop
vertex 1.260000e-0001 1.048773e-0001 -9.519632e-003
vertex 9.400000e-0002 1.024504e-0001 -9.879618e-003
vertex 9.400000e-0002 1.048773e-0001 -9.519632e-003
endloop
endfacet
facet normal 0.000000e+00 2.429802e-01 -9.700313e-01
outer loop
vertex 1.260000e-0001 1.048773e-0001 -9.519632e-003
vertex 9.400000e-0002 1.048773e-0001 -9.519632e-003
vertex 1.260000e-0001 1.072571e-0001 -8.923508e-003
endloop
endfacet
facet normal 0.000000e+00 2.429802e-01 -9.700313e-01
outer loop
vertex 1.260000e-0001 1.072571e-0001 -8.923508e-003
vertex 9.400000e-0002 1.048773e-0001 -9.519632e-003
vertex 9.400000e-0002 1.072571e-0001 -8.923508e-003
endloop
endfacet
facet normal 0.000000e+00 3.368899e-01 -9.415441e-01
outer loop
vertex 1.260000e-0001 1.072571e-0001 -8.923508e-003
vertex 9.400000e-0002 1.072571e-0001 -8.923508e-003
vertex 1.260000e-0001 1.095671e-0001 -8.096988e-003
endloop
endfacet
facet normal 0.000000e+00 3.368899e-01 -9.415441e-01
outer loop
vertex 1.260000e-0001 1.095671e-0001 -8.096988e-003
vertex 9.400000e-0002 1.072571e-0001 -8.923508e-003
vertex 9.400000e-0002 1.095671e-0001 -8.096988e-003
endloop
endfacet
facet normal 0.000000e+00 4.275551e-01 -9.039893e-01
outer loop
vertex 1.260000e-0001 1.095671e-0001 -8.096988e-003
vertex 9.400000e-0002 1.095671e-0001 -8.096988e-003
vertex 1.260000e-0001 1.117849e-0001 -7.048032e-003
endloop
endfacet
facet normal 0.000000e+00 4.275551e-01 -9.039893e-01
outer loop
vertex 1.260000e-0001 1.117849e-0001 -7.048032e-003
vertex 9.400000e-0002 1.095671e-0001 -8.096988e-003
vertex 9.400000e-0002 1.117849e-0001 -7.048032e-003
endloop
endfacet
facet normal 0.000000e+00 5.141027e-01 -8.577286e-01
outer loop
vertex 1.260000e-0001 1.117849e-0001 -7.048032e-003
vertex 9.400000e-0002 1.117849e-0001 -7.048032e-003
vertex 1.260000e-0001 1.138893e-0001 -5.786740e-003
endloop
endfacet
facet normal 0.000000e+00 5.141027e-01 -8.577286e-01
outer loop
vertex 1.260000e-0001 1.138893e-0001 -5.786740e-003
vertex 9.400000e-0002 1.117849e-0001 -7.048032e-003
vertex 9.400000e-0002 1.138893e-0001 -5.786740e-003
endloop
endfacet
facet normal 0.000000e+00 5.956993e-01 -8.032075e-01
outer loop
vertex 1.260000e-0001 1.138893e-0001 -5.786740e-003
vertex 9.400000e-0002 1.138893e-0001 -5.786740e-003
vertex 1.260000e-0001 1.158598e-0001 -4.325261e-003
endloop
endfacet
facet normal 0.000000e+00 5.956993e-01 -8.032075e-01
outer loop
vertex 1.260000e-0001 1.158598e-0001 -4.325261e-003
vertex 9.400000e-0002 1.138893e-0001 -5.786740e-003
vertex 9.400000e-0002 1.158598e-0001 -4.325261e-003
endloop
endfacet
facet normal 0.000000e+00 6.715590e-01 -7.409511e-01
outer loop
vertex 1.260000e-0001 1.158598e-0001 -4.325261e-003
vertex 9.400000e-0002 1.158598e-0001 -4.325261e-003
vertex 1.260000e-0001 1.176777e-0001 -2.677670e-003
endloop
endfacet
facet normal 0.000000e+00 6.715590e-01 -7.409511e-01
outer loop
vertex 1.260000e-0001 1.176777e-0001 -2.677670e-003
vertex 9.400000e-0002 1.158598e-0001 -4.325261e-003
vertex 9.400000e-0002 1.176777e-0001 -2.677670e-003
endloop
endfacet
facet normal 0.000000e+00 7.409511e-01 -6.715590e-01
outer loop
vertex 1.260000e-0001 1.176777e-0001 -2.677670e-003
vertex 9.400000e-0002 1.176777e-0001 -2.677670e-003
vertex 1.260000e-0001 1.193253e-0001 -8.598321e-004
endloop
endfacet
facet normal 0.000000e+00 7.409511e-01 -6.715590e-01
outer loop
vertex 1.260000e-0001 1.193253e-0001 -8.598321e-004
vertex 9.400000e-0002 1.176777e-0001 -2.677670e-003
vertex 9.400000e-0002 1.193253e-0001 -8.598321e-004
endloop
endfacet
facet normal 0.000000e+00 8.032075e-01 -5.956993e-01
outer loop
vertex 1.260000e-0001 1.193253e-0001 -8.598321e-004
vertex 9.400000e-0002 1.193253e-0001 -8.598321e-004
vertex 1.260000e-0001 1.207867e-0001 1.110744e-0003
endloop
endfacet
facet normal 0.000000e+00 8.032075e-01 -5.956993e-01
outer loop
vertex 1.260000e-0001 1.207867e-0001 1.110744e-0003
vertex 9.400000e-0002 1.193253e-0001 -8.598321e-004
vertex 9.400000e-0002 1.207867e-0001 1.110744e-0003
endloop
endfacet
facet normal 0.000000e+00 8.577286e-01 -5.141027e-01
outer loop
vertex 1.260000e-0001 1.207867e-0001 1.110744e-0003
vertex 9.400000e-0002 1.207867e-0001 1.110744e-0003
vertex 1.260000e-0001 1.220480e-0001 3.215082e-0003
endloop
endfacet
facet normal 0.000000e+00 8.577286e-01 -5.141027e-01
outer loop
vertex 1.260000e-0001 1.220480e-0001 3.215082e-0003
vertex 9.400000e-0002 1.207867e-0001 1.110744e-0003
vertex 9.400000e-0002 1.220480e-0001 3.215082e-0003
endloop
endfacet
facet normal 0.000000e+00 9.039893e-01 -4.275551e-01
outer loop
vertex 1.260000e-0001 1.220480e-0001 3.215082e-0003
vertex 9.400000e-0002 1.220480e-0001 3.215082e-0003
vertex 1.260000e-0001 1.230970e-0001 5.432914e-0003
endloop
endfacet
facet normal 0.000000e+00 9.039893e-01 -4.275551e-01
outer loop
vertex 1.260000e-0001 1.230970e-0001 5.432914e-0003
vertex 9.400000e-0002 1.220480e-0001 3.215082e-0003
vertex 9.400000e-0002 1.230970e-0001 5.432914e-0003
endloop
endfacet
facet normal 0.000000e+00 9.415441e-01 -3.368899e-01
outer loop
vertex 1.260000e-0001 1.230970e-0001 5.432914e-0003
vertex 9.400000e-0002 1.230970e-0001 5.432914e-0003
vertex 1.260000e-0001 1.239235e-0001 7.742883e-0003
endloop
endfacet
facet normal 0.000000e+00 9.415441e-01 -3.368899e-01
outer loop
vertex 1.260000e-0001 1.239235e-0001 7.742883e-0003
vertex 9.400000e-0002 1.230970e-0001 5.432914e-0003
vertex 9.400000e-0002 1.239235e-0001 7.742883e-0003
endloop
endfacet
facet normal 0.000000e+00 9.700313e-01 -2.429802e-01
outer loop
vertex 1.260000e-0001 1.239235e-0001 7.742883e-0003
vertex 9.400000e-0002 1.239235e-0001 7.742883e-0003
vertex 1.260000e-0001 1.245196e-0001 1.012274e-0002
endloop
endfacet
facet normal 0.000000e+00 9.700313e-01 -2.429802e-01
outer loop
vertex 1.260000e-0001 1.245196e-0001 1.012274e-0002
vertex 9.400000e-0002 1.239235e-0001 7.742883e-0003
vertex 9.400000e-0002 1.245196e-0001 1.012274e-0002
endloop
endfacet
facet normal 0.000000e+00 9.891765e-01 -1.467305e-01
outer loop
vertex 1.260000e-0001 1.245196e-0001 1.012274e-0002
vertex 9.400000e-0002 1.245196e-0001 1.012274e-0002
vertex 1.260000e-0001 1.248796e-0001 1.254957e-0002
endloop
endfacet
facet normal 0.000000e+00 9.891765e-01 -1.467305e-01
outer loop
vertex 1.260000e-0001 1.248796e-0001 1.254957e-0002
vertex 9.400000e-0002 1.245196e-0001 1.012274e-0002
vertex 9.400000e-0002 1.248796e-0001 1.254957e-0002
endloop
endfacet
facet normal 0.000000e+00 9.987955e-01 -4.906767e-02
outer loop
vertex 1.260000e-0001 1.248796e-0001 1.254957e-0002
vertex 9.400000e-0002 1.248796e-0001 1.254957e-0002
vertex 1.260000e-0001 1.250000e-0001 1.500000e-0002
endloop
endfacet
facet normal 0.000000e+00 9.987955e-01 -4.906767e-02
outer loop
vertex 1.260000e-0001 1.250000e-0001 1.500000e-0002
vertex 9.400000e-0002 1.248796e-0001 1.254957e-0002
vertex 9.400000e-0002 1.250000e-0001 1.500000e-0002
endloop
endfacet
facet normal 0.000000e+00 9.987955e-01 4.906767e-02
outer loop
vertex 1.260000e-0001 1.250000e-0001 1.500000e-0002
vertex 9.400000e-0002 1.250000e-0001 1.500000e-0002
vertex 1.260000e-0001 1.248796e-0001 1.745043e-0002
endloop
endfacet
facet normal 0.000000e+00 9.987955e-01 4.906767e-02
outer loop
vertex 1.260000e-0001 1.248796e-0001 1.745043e-0002
vertex 9.400000e-0002 1.250000e-0001 1.500000e-0002
vertex 9.400000e-0002 1.248796e-0001 1.745043e-0002
endloop
endfacet
facet normal 0.000000e+00 9.891765e-01 1.467305e-01
outer loop
vertex 1.260000e-0001 1.248796e-0001 1.745043e-0002
vertex 9.400000e-0002 1.248796e-0001 1.745043e-0002
vertex 1.260000e-0001 1.245196e-0001 1.987726e-0002
endloop
endfacet
facet normal 0.000000e+00 9.891765e-01 1.467305e-01
outer loop
vertex 1.260000e-0001 1.245196e-0001 1.987726e-0002
vertex 9.400000e-0002 1.248796e-0001 1.745043e-0002
vertex 9.400000e-0002 1.245196e-0001 1.987726e-0002
endloop
endfacet
facet normal 0.000000e+00 9.700313e-01 2.429802e-01
outer loop
vertex 1.260000e-0001 1.245196e-0001 1.987726e-0002
vertex 9.400000e-0002 1.245196e-0001 1.987726e-0002
vertex 1.260000e-0001 1.239235e-0001 2.225712e-0002
endloop
endfacet
facet normal 0.000000e+00 9.700313e-01 2.429802e-01
outer loop
vertex 1.260000e-0001 1.239235e-0001 2.225712e-0002
vertex 9.400000e-0002 1.245196e-0001 1.987726e-0002
vertex 9.400000e-0002 1.239235e-0001 2.225712e-0002
endloop
endfacet
facet normal 0.000000e+00 9.415441e-01 3.368899e-01
outer loop
vertex 1.260000e-0001 1.239235e-0001 2.225712e-0002
vertex 9.400000e-0002 1.239235e-0001 2.225712e-0002
vertex 1.260000e-0001 1.230970e-0001 2.456709e-0002
endloop
endfacet
facet normal 0.000000e+00 9.415441e-01 3.368899e-01
outer loop
vertex 1.260000e-0001 1.230970e-0001 2.456709e-0002
vertex 9.400000e-0002 1.239235e-0001 2.225712e-0002
vertex 9.400000e-0002 1.230970e-0001 2.456709e-0002
endloop
endfacet
facet normal 0.000000e+00 9.039893e-01 4.275551e-01
outer loop
vertex 1.260000e-0001 1.230970e-0001 2.456709e-0002
vertex 9.400000e-0002 1.230970e-0001 2.456709e-0002
vertex 1.260000e-0001 1.220480e-0001 2.678492e-0002
endloop
endfacet
facet normal 0.000000e+00 9.039893e-01 4.275551e-01
outer loop
vertex 1.260000e-0001 1.220480e-0001 2.678492e-0002
vertex 9.400000e-0002 1.230970e-0001 2.456709e-0002
vertex 9.400000e-0002 1.220480e-0001 2.678492e-0002
endloop
endfacet
facet normal 0.000000e+00 8.577286e-01 5.141027e-01
outer loop
vertex 1.260000e-0001 1.220480e-0001 2.678492e-0002
vertex 9.400000e-0002 1.220480e-0001 2.678492e-0002
vertex 1.260000e-0001 1.207867e-0001 2.888926e-0002
endloop
endfacet
facet normal 0.000000e+00 8.577286e-01 5.141027e-01
outer loop
vertex 1.260000e-0001 1.207867e-0001 2.888926e-0002
vertex 9.400000e-0002 1.220480e-0001 2.678492e-0002
vertex 9.400000e-0002 1.207867e-0001 2.888926e-0002
endloop
endfacet
facet normal 0.000000e+00 8.032075e-01 5.956993e-01
outer loop
vertex 1.260000e-0001 1.207867e-0001 2.888926e-0002
vertex 9.400000e-0002 1.207867e-0001 2.888926e-0002
vertex 1.260000e-0001 1.193253e-0001 3.085983e-0002
endloop
endfacet
facet normal 0.000000e+00 8.032075e-01 5.956993e-01
outer loop
vertex 1.260000e-0001 1.193253e-0001 3.085983e-0002
vertex 9.400000e-0002 1.207867e-0001 2.888926e-0002
vertex 9.400000e-0002 1.193253e-0001 3.085983e-0002
endloop
endfacet
facet normal 0.000000e+00 7.409511e-01 6.715590e-01
outer loop
vertex 1.260000e-0001 1.193253e-0001 3.085983e-0002
vertex 9.400000e-0002 1.193253e-0001 3.085983e-0002
vertex 1.260000e-0001 1.176777e-0001 3.267767e-0002
endloop
endfacet
facet normal 0.000000e+00 7.409511e-01 6.715590e-01
outer loop
vertex 1.260000e-0001 1.176777e-0001 3.267767e-0002
vertex 9.400000e-0002 1.193253e-0001 3.085983e-0002
vertex 9.400000e-0002 1.176777e-0001 3.267767e-0002
endloop
endfacet
facet normal 0.000000e+00 6.715590e-01 7.409511e-01
outer loop
vertex 1.260000e-0001 1.176777e-0001 3.267767e-0002
vertex 9.400000e-0002 1.176777e-0001 3.267767e-0002
vertex 1.260000e-0001 1.158598e-0001 3.432526e-0002
endloop
endfacet
facet normal 0.000000e+00 6.715590e-01 7.409511e-01
outer loop
vertex 1.260000e-0001 1.158598e-0001 3.432526e-0002
vertex 9.400000e-0002 1.176777e-0001 3.267767e-0002
vertex 9.400000e-0002 1.158598e-0001 3.432526e-0002
endloop
endfacet
facet normal 0.000000e+00 5.956993e-01 8.032075e-01
outer loop
vertex 1.260000e-0001 1.158598e-0001 3.432526e-0002
vertex 9.400000e-0002 1.158598e-0001 3.432526e-0002
vertex 1.260000e-0001 1.138893e-0001 3.578674e-0002
endloop
endfacet
facet normal 0.000000e+00 5.956993e-01 8.032075e-01
outer loop
vertex 1.260000e-0001 1.138893e-0001 3.578674e-0002
vertex 9.400000e-0002 1.158598e-0001 3.432526e-0002
vertex 9.400000e-0002 1.138893e-0001 3.578674e-0002
endloop
endfacet
facet normal 0.000000e+00 5.141027e-01 8.577286e-01
outer loop
vertex 1.260000e-0001 1.138893e-0001 3.578674e-0002
vertex 9.400000e-0002 1.138893e-0001 3.578674e-0002
vertex 1.260000e-0001 1.117849e-0001 3.704803e-0002
endloop
endfacet
facet normal 0.000000e+00 5.141027e-01 8.577286e-01
outer loop
vertex 1.260000e-0001 1.117849e-0001 3.704803e-0002
vertex 9.400000e-0002 1.138893e-0001 3.578674e-0002
vertex 9.400000e-0002 1.117849e-0001 3.704803e-0002
endloop
endfacet
facet normal 0.000000e+00 4.275551e-01 9.039893e-01
outer loop
vertex 1.260000e-0001 1.117849e-0001 3.704803e-0002
vertex 9.400000e-0002 1.117849e-0001 3.704803e-0002
vertex 1.260000e-0001 1.095671e-0001 3.809699e-0002
endloop
endfacet
facet normal 0.000000e+00 4.275551e-01 9.039893e-01
outer loop
vertex 1.260000e-0001 1.095671e-0001 3.809699e-0002
vertex 9.400000e-0002 1.117849e-0001 3.704803e-0002
vertex 9.400000e-0002 1.095671e-0001 3.809699e-0002
endloop
endfacet
facet normal 0.000000e+00 3.368899e-01 9.415441e-01
outer loop
vertex 1.260000e-0001 1.095671e-0001 3.809699e-0002
vertex 9.400000e-0002 1.095671e-0001 3.809699e-0002
vertex 1.260000e-0001 1.072571e-0001 3.892351e-0002
endloop
endfacet
facet normal 0.000000e+00 3.368899e-01 9.415441e-01
outer loop
vertex 1.260000e-0001 1.072571e-0001 3.892351e-0002
vertex 9.400000e-0002 1.095671e-0001 3.809699e-0002
vertex 9.400000e-0002 1.072571e-0001 3.892351e-0002
endloop
endfacet
facet normal 0.000000e+00 2.429802e-01 9.700313e-01
outer loop
vertex 1.260000e-0001 1.072571e-0001 3.892351e-0002
vertex 9.400000e-0002 1.072571e-0001 3.892351e-0002
vertex 1.260000e-0001 1.048773e-0001 3.951963e-0002
endloop
endfacet
facet normal 0.000000e+00 2.429802e-01 9.700313e-01
outer loop
vertex 1.260000e-0001 1.048773e-0001 3.951963e-0002
vertex 9.400000e-0002 1.072571e-0001 3.892351e-0002
vertex 9.400000e-0002 1.048773e-0001 3.951963e-0002
endloop
endfacet
facet normal 0.000000e+00 1.467305e-01 9.891765e-01
outer loop
vertex 1.260000e-0001 1.048773e-0001 3.951963e-0002
vertex 9.400000e-0002 1.048773e-0001 3.951963e-0002
vertex 1.260000e-0001 1.024504e-0001 3.987962e-0002
endloop
endfacet
facet normal 0.000000e+00 1.467305e-01 9.891765e-01
outer loop
vertex 1.260000e-0001 1.024504e-0001 3.987962e-0002
vertex 9.400000e-0002 1.048773e-0001 3.951963e-0002
vertex 9.400000e-0002 1.024504e-0001 3.987962e-0002
endloop
endfacet
facet normal 0.000000e+00 4.906767e-02 9.987955e-01
outer loop
vertex 1.260000e-0001 1.024504e-0001 3.987962e-0002
vertex 9.400000e-0002 1.024504e-0001 3.987962e-0002
vertex 1.260000e-0001 1.000000e-0001 4.000000e-0002
endloop
endfacet
facet normal 0.000000e+00 4.906767e-02 9.987955e-01
outer loop
vertex 1.260000e-0001 1.000000e-0001 4.000000e-0002
vertex 9.400000e-0002 1.024504e-0001 3.987962e-0002
vertex 9.400000e-0002 1.000000e-0001 4.000000e-0002
endloop
endfacet
facet normal 0.000000e+00 -4.906767e-02 9.987955e-01
outer loop
vertex 1.260000e-0001 1.000000e-0001 4.000000e-0002
vertex 9.400000e-0002 1.000000e-0001 4.000000e-0002
vertex 1.260000e-0001 9.754957e-0002 3.987962e-0002
endloop
endfacet
facet normal 0.000000e+00 -4.906767e-02 9.987955e-01
outer loop
vertex 1.260000e-0001 9.754957e-0002 3.987962e-0002
vertex 9.400000e-0002 1.000000e-0001 4.000000e-0002
vertex 9.400000e-0002 9.754957e-0002 3.987962e-0002
endloop
endfacet
facet normal 0.000000e+00 -1.467305e-01 9.891765e-01
outer loop
vertex 1.260000e-0001 9.754957e-0002 3.987962e-0002
vertex 9.400000e-0002 9.754957e-0002 3.987962e-0002
vertex 1.260000e-0001 9.512274e-0002 3.951963e-0002
endloop
endfacet
facet normal 0.000000e+00 -1.467305e-01 9.891765e-01
outer loop
vertex 1.260000e-0001 9.512274e-0002 3.951963e-0002
vertex 9.400000e-0002 9.754957e-0002 3.987962e-0002
vertex 9.400000e-0002 9.512274e-0002 3.951963e-0002
endloop
endfacet
facet normal 0.000000e+00 -2.429802e-01 9.700313e-01
outer loop
vertex 1.260000e-0001 9.512274e-0002 3.951963e-0002
vertex 9.400000e-0002 9.512274e-0002 3.951963e-0002
vertex 1.260000e-0001 9.274288e-0002 3.892351e-0002
endloop
endfacet
facet normal 0.000000e+00 -2.429802e-01 9.700313e-01
outer loop
vertex 1.260000e-0001 9.274288e-0002 3.892351e-0002
vertex 9.400000e-0002 9.512274e-0002 3.951963e-0002
vertex 9.400000e-0002 9.274288e-0002 3.892351e-0002
endloop
endfacet
facet normal 0.000000e+00 -3.368899e-01 9.415441e-01
outer loop
vertex 1.260000e-0001 9.274288e-0002 3.892351e-0002
vertex 9.400000e-0002 9.274288e-0002 3.892351e-0002
vertex 1.260000e-0001 9.043291e-0002 3.809699e-0002
endloop
endfacet
facet normal 0.000000e+00 -3.368899e-01 9.415441e-01
outer loop
vertex 1.260000e-0001 9.043291e-0002 3.809699e-0002
vertex 9.400000e-0002 9.274288e-0002 3.892351e-0002
vertex 9.400000e-0002 9.043291e-0002 3.809699e-0002
endloop
endfacet
facet normal 0.000000e+00 -4.275551e-01 9.039893e-01
outer loop
vertex 1.260000e-0001 9.043291e-0002 3.809699e-0002
vertex 9.400000e-0002 9.043291e-0002 3.809699e-0002
vertex 1.260000e-0001 8.821508e-0002 3.704803e-0002
endloop
endfacet
facet normal 0.000000e+00 -4.275551e-01 9.039893e-01
outer loop
vertex 1.260000e-0001 8.821508e-0002 3.704803e-0002
vertex 9.400000e-0002 9.043291e-0002 3.809699e-0002
vertex 9.400000e-0002 8.821508e-0002 3.704803e-0002
endloop
endfacet
facet normal 0.000000e+00 -5.141027e-01 8.577286e-01
outer loop
vertex 1.260000e-0001 8.821508e-0002 3.704803e-0002
vertex 9.400000e-0002 8.821508e-0002 3.704803e-0002
vertex 1.260000e-0001 8.611074e-0002 3.578674e-0002
endloop
endfacet
facet normal 0.000000e+00 -5.141027e-01 8.577286e-01
outer loop
vertex 1.260000e-0001 8.611074e-0002 3.578674e-0002
vertex 9.400000e-0002 8.821508e-0002 3.704803e-0002
vertex 9.400000e-0002 8.611074e-0002 3.578674e-0002
endloop
endfacet
facet normal 0.000000e+00 -5.956993e-01 8.032075e-01
outer loop
vertex 1.260000e-0001 8.611074e-0002 3.578674e-0002
vertex 9.400000e-0002 8.611074e-0002 3.578674e-0002
vertex 1.260000e-0001 8.414017e-0002 3.432526e-0002
endloop
endfacet
facet normal 0.000000e+00 -5.956993e-01 8.032075e-01
outer loop
vertex 1.260000e-0001 8.414017e-0002 3.432526e-0002
vertex 9.400000e-0002 8.611074e-0002 3.578674e-0002
vertex 9.400000e-0002 8.414017e-0002 3.432526e-0002
endloop
endfacet
facet normal 0.000000e+00 -6.715590e-01 7.409511e-01
outer loop
vertex 1.260000e-0001 8.414017e-0002 3.432526e-0002
vertex 9.400000e-0002 8.414017e-0002 3.432526e-0002
vertex 1.260000e-0001 8.232233e-0002 3.267767e-0002
endloop
endfacet
facet normal 0.000000e+00 -6.715590e-01 7.409511e-01
outer loop
vertex 1.260000e-0001 8.232233e-0002 3.267767e-0002
vertex 9.400000e-0002 8.414017e-0002 3.432526e-0002
vertex 9.400000e-0002 8.232233e-0002 3.267767e-0002
endloop
endfacet
facet normal 0.000000e+00 -7.409511e-01 6.715590e-01
outer loop
vertex 1.260000e-0001 8.232233e-0002 3.267767e-0002
vertex 9.400000e-0002 8.232233e-0002 3.267767e-0002
vertex 1.260000e-0001 8.067474e-0002 3.085983e-0002
endloop
endfacet
facet normal 0.000000e+00 -7.409511e-01 6.715590e-01
outer loop
vertex 1.260000e-0001 8.067474e-0002 3.085983e-0002
vertex 9.400000e-0002 8.232233e-0002 3.267767e-0002
vertex 9.400000e-0002 8.067474e-0002 3.085983e-0002
endloop
endfacet
facet normal 0.000000e+00 -8.032075e-01 5.956993e-01
outer loop
vertex 1.260000e-0001 8.067474e-0002 3.085983e-0002
vertex 9.400000e-0002 8.067474e-0002 3.085983e-0002
vertex 1.260000e-0001 7.921326e-0002 2.888926e-0002
endloop
endfacet
facet normal 0.000000e+00 -8.032075e-01 5.956993e-01
outer loop
vertex 1.260000e-0001 7.921326e-0002 2.888926e-0002
vertex 9.400000e-0002 8.067474e-0002 3.085983e-0002
vertex 9.400000e-0002 7.921326e-0002 2.888926e-0002
endloop
endfacet
facet normal 0.000000e+00 -8.577286e-01 5.141027e-01
outer loop
vertex 1.260000e-0001 7.921326e-0002 2.888926e-0002
vertex 9.400000e-0002 7.921326e-0002 2.888926e-0002
vertex 1.260000e-0001 7.795197e-0002 2.678492e-0002
endloop
endfacet
facet normal 0.000000e+00 -8.577286e-01 5.141027e-01
outer loop
vertex 1.260000e-0001 7.795197e-0002 2.678492e-0002
vertex 9.400000e-0002 7.921326e-0002 2.888926e-0002
vertex 9.400000e-0002 7.795197e-0002 2.678492e-0002
endloop
endfacet
facet normal 0.000000e+00 -9.039893e-01 4.275551e-01
outer loop
vertex 1.260000e-0001 7.795197e-0002 2.678492e-0002
vertex 9.400000e-0002 7.795197e-0002 2.678492e-0002
vertex 1.260000e-0001 7.690301e-0002 2.456709e-0002
endloop
endfacet
facet normal 0.000000e+00 -9.039893e-01 4.275551e-01
outer loop
vertex 1.260000e-0001 7.690301e-0002 2.456709e-0002
vertex 9.400000e-0002 7.795197e-0002 2.678492e-0002
vertex 9.400000e-0002 7.690301e-0002 2.456709e-0002
endloop
endfacet
facet normal 0.000000e+00 -9.415441e-01 3.368899e-01
outer loop
vertex 1.260000e-0001 7.690301e-0002 2.456709e-0002
vertex 9.400000e-0002 7.690301e-0002 2.456709e-0002
vertex 1.260000e-0001 7.607649e-0002 2.225712e-0002
endloop
endfacet
facet normal 0.000000e+00 -9.415441e-01 3.368899e-01
outer loop
vertex 1.260000e-0001 7.607649e-0002 2.225712e-0002
vertex 9.400000e-0002 7.690301e-0002 2.456709e-0002
vertex 9.400000e-0002 7.607649e-0002 2.225712e-0002
endloop
endfacet
facet normal 0.000000e+00 -9.700313e-01 2.429802e-01
outer loop
vertex 1.260000e-0001 7.607649e-0002 2.225712e-0002
vertex 9.400000e-0002 7.607649e-0002 2.225712e-0002
vertex 1.260000e-0001 7.548037e-0002 1.987726e-0002
endloop
endfacet
facet normal 0.000000e+00 -9.700313e-01 2.429802e-01
outer loop
vertex 1.260000e-0001 7.548037e-0002 1.987726e-0002
vertex 9.400000e-0002 7.607649e-0002 2.225712e-0002
vertex 9.400000e-0002 7.548037e-0002 1.987726e-0002
endloop
endfacet
facet normal 0.000000e+00 -9.891765e-01 1.467305e-01
outer loop
vertex 1.260000e-0001 7.548037e-0002 1.987726e-0002
vertex 9.400000e-0002 7.548037e-0002 1.987726e-0002
vertex 1.260000e-0001 7.512038e-0002 1.745043e-0002
endloop
endfacet
facet normal 0.000000e+00 -9.891765e-01 1.467305e-01
outer loop
vertex 1.260000e-0001 7.512038e-0002 1.745043e-0002
vertex 9.400000e-0002 7.548037e-0002 1.987726e-0002
vertex 9.400000e-0002 7.512038e-0002 1.745043e-0002
endloop
endfacet
facet normal 1.000000e+00 0.000000e+00 -0.000000e+00
outer loop
vertex 1.260000e-0001 7.512038e-0002 1.254957e-0002
vertex 1.260000e-0001 1.248796e-0001 1.254957e-0002
vertex 1.260000e-0001 7.500000e-0002 1.500000e-0002
endloop
endfacet
facet normal 1.000000e+00 0.000000e+00 0.000000e+00
outer loop
vertex 1.260000e-0001 7.500000e-0002 1.500000e-0002
vertex 1.260000e-0001 1.248796e-0001 1.254957e-0002
vertex 1.260000e-0001 1.250000e-0001 1.500000e-0002
endloop
endfacet
facet normal 1.000000e+00 -0.000000e+00 0.000000e+00
outer loop
vertex 1.260000e-0001 7.500000e-0002 1.500000e-0002
vertex 1.260000e-0001 1.250000e-0001 1.500000e-0002
vertex 1.260000e-0001 7.512038e-0002 1.745043e-0002
endloop
endfacet
facet normal 1.000000e+00 -0.000000e+00 0.000000e+00
outer loop
vertex 1.260000e-0001 7.512038e-0002 1.745043e-0002
vertex 1.260000e-0001 1.250000e-0001 1.500000e-0002
vertex 1.260000e-0001 1.248796e-0001 1.745043e-0002
endloop
endfacet
facet normal 1.000000e+00 0.000000e+00 0.000000e+00
outer loop
vertex 1.260000e-0001 7.512038e-0002 1.745043e-0002
vertex 1.260000e-0001 1.248796e-0001 1.745043e-0002
vertex 1.260000e-0001 7.548037e-0002 1.987726e-0002
endloop
endfacet
facet normal 1.000000e+00 0.000000e+00 0.000000e+00
outer loop
vertex 1.260000e-0001 7.548037e-0002 1.987726e-0002
vertex 1.260000e-0001 1.248796e-0001 1.745043e-0002
vertex 1.260000e-0001 1.245196e-0001 1.987726e-0002
endloop
endfacet
facet normal 1.000000e+00 -0.000000e+00 0.000000e+00
outer loop
vertex 1.260000e-0001 7.548037e-0002 1.987726e-0002
vertex 1.260000e-0001 1.245196e-0001 1.987726e-0002
vertex 1.260000e-0001 7.607649e-0002 2.225712e-0002
endloop
endfacet
facet normal 1.000000e+00 0.000000e+00 0.000000e+00
outer loop
vertex 1.260000e-0001 7.607649e-0002 2.225712e-0002
vertex 1.260000e-0001 1.245196e-0001 1.987726e-0002
vertex 1.260000e-0001 1.239235e-0001 2.225712e-0002
endloop
endfacet
facet normal 1.000000e+00 -0.000000e+00 0.000000e+00
outer loop
vertex 1.260000e-0001 7.607649e-0002 2.225712e-0002
vertex 1.260000e-0001 1.239235e-0001 2.225712e-0002
vertex 1.260000e-0001 7.690301e-0002 2.456709e-0002
endloop
endfacet
facet normal 1.000000e+00 0.000000e+00 0.000000e+00
outer loop
vertex 1.260000e-0001 7.690301e-0002 2.456709e-0002
vertex 1.260000e-0001 1.239235e-0001 2.225712e-0002
vertex 1.260000e-0001 1.230970e-0001 2.456709e-0002
endloop
endfacet
facet normal 1.000000e+00 -0.000000e+00 0.000000e+00
outer loop
vertex 1.260000e-0001 7.690301e-0002 2.456709e-0002
vertex 1.260000e-0001 1.230970e-0001 2.456709e-0002
vertex 1.260000e-0001 7.795197e-0002 2.678492e-0002
endloop
endfacet
facet normal 1.000000e+00 0.000000e+00 0.000000e+00
outer loop
vertex 1.260000e-0001 7.795197e-0002 2.678492e-0002
vertex 1.260000e-0001 1.230970e-0001 2.456709e-0002
vertex 1.260000e-0001 1.220480e-0001 2.678492e-0002
endloop
endfacet
facet normal 1.000000e+00 -0.000000e+00 0.000000e+00
outer loop
vertex 1.260000e-0001 7.795197e-0002 2.678492e-0002
vertex 1.260000e-0001 1.220480e-0001 2.678492e-0002
vertex 1.260000e-0001 7.921326e-0002 2.888926e-0002
endloop
endfacet
facet normal 1.000000e+00 0.000000e+00 0.000000e+00
outer loop
vertex 1.260000e-0001 7.921326e-0002 2.888926e-0002
vertex 1.260000e-0001 1.220480e-0001 2.678492e-0002
vertex 1.260000e-0001 1.207867e-0001 2.888926e-0002
endloop
endfacet
facet normal 1.000000e+00 -0.000000e+00 0.000000e+00
outer loop
vertex 1.260000e-0001 7.921326e-0002 2.888926e-0002
vertex 1.260000e-0001 1.207867e-0001 2.888926e-0002
vertex 1.260000e-0001 8.067474e-0002 3.085983e-0002
endloop
endfacet
facet normal 1.000000e+00 0.000000e+00 0.000000e+00
outer loop
vertex 1.260000e-0001 8.067474e-0002 3.085983e-0002
vertex 1.260000e-0001 1.207867e-0001 2.888926e-0002
vertex 1.260000e-0001 1.193253e-0001 3.085983e-0002
endloop
endfacet
facet normal 1.000000e+00 -0.000000e+00 0.000000e+00
outer loop
vertex 1.260000e-0001 8.067474e-0002 3.085983e-0002
vertex 1.260000e-0001 1.193253e-0001 3.085983e-0002
vertex 1.260000e-0001 8.232233e-0002 3.267767e-0002
endloop
endfacet
facet normal 1.000000e+00 -0.000000e+00 0.000000e+00
outer loop
vertex 1.260000e-0001 8.232233e-0002 3.267767e-0002
vertex 1.260000e-0001 1.193253e-0001 3.085983e-0002
vertex 1.260000e-0001 1.176777e-0001 3.267767e-0002
endloop
endfacet
facet normal 1.000000e+00 0.000000e+00 0.000000e+00
outer loop
vertex 1.260000e-0001 8.232233e-0002 3.267767e-0002
vertex 1.260000e-0001 1.176777e-0001 3.267767e-0002
vertex 1.260000e-0001 8.414017e-0002 3.432526e-0002
endloop
endfacet
facet normal 1.000000e+00 -0.000000e+00 0.000000e+00
outer loop
vertex 1.260000e-0001 8.414017e-0002 3.432526e-0002
vertex 1.260000e-0001 1.176777e-0001 3.267767e-0002
vertex 1.260000e-0001 1.158598e-0001 3.432526e-0002
endloop
endfacet
facet normal 1.000000e+00 0.000000e+00 0.000000e+00
outer loop
vertex 1.260000e-0001 8.414017e-0002 3.432526e-0002
vertex 1.260000e-0001 1.158598e-0001 3.432526e-0002
vertex 1.260000e-0001 8.611074e-0002 3.578674e-0002
endloop
endfacet
facet normal 1.000000e+00 -0.000000e+00 0.000000e+00
outer loop
vertex 1.260000e-0001 8.611074e-0002 3.578674e-0002
vertex 1.260000e-0001 1.158598e-0001 3.432526e-0002
vertex 1.260000e-0001 1.138893e-0001 3.578674e-0002
endloop
endfacet
facet normal 1.000000e+00 0.000000e+00 0.000000e+00
outer loop
vertex 1.260000e-0001 8.611074e-0002 3.578674e-0002
vertex 1.260000e-0001 1.138893e-0001 3.578674e-0002
vertex 1.260000e-0001 8.821508e-0002 3.704803e-0002
endloop
endfacet
facet normal 1.000000e+00 -0.000000e+00 0.000000e+00
outer loop
vertex 1.260000e-0001 8.821508e-0002 3.704803e-0002
vertex 1.260000e-0001 1.138893e-0001 3.578674e-0002
vertex 1.260000e-0001 1.117849e-0001 3.704803e-0002
endloop
endfacet
facet normal 1.000000e+00 0.000000e+00 0.000000e+00
outer loop
vertex 1.260000e-0001 8.821508e-0002 3.704803e-0002
vertex 1.260000e-0001 1.117849e-0001 3.704803e-0002
vertex 1.260000e-0001 9.043291e-0002 3.809699e-0002
endloop
endfacet
facet normal 1.000000e+00 0.000000e+00 0.000000e+00
outer loop
vertex 1.260000e-0001 9.043291e-0002 3.809699e-0002
vertex 1.260000e-0001 1.117849e-0001 3.704803e-0002
vertex 1.260000e-0001 1.095671e-0001 3.809699e-0002
endloop
endfacet
facet normal 1.000000e+00 -0.000000e+00 0.000000e+00
outer loop
vertex 1.260000e-0001 9.043291e-0002 3.809699e-0002
vertex 1.260000e-0001 1.095671e-0001 3.809699e-0002
vertex 1.260000e-0001 9.274288e-0002 3.892351e-0002
endloop
endfacet
facet normal 1.000000e+00 -0.000000e+00 0.000000e+00
outer loop
vertex 1.260000e-0001 9.274288e-0002 3.892351e-0002
vertex 1.260000e-0001 1.095671e-0001 3.809699e-0002
vertex 1.260000e-0001 1.072571e-0001 3.892351e-0002
endloop
endfacet
facet normal 1.000000e+00 0.000000e+00 0.000000e+00
outer loop
vertex 1.260000e-0001 9.274288e-0002 3.892351e-0002
vertex 1.260000e-0001 1.072571e-0001 3.892351e-0002
vertex 1.260000e-0001 9.512274e-0002 3.951963e-0002
endloop
endfacet
facet normal 1.000000e+00 -0.000000e+00 0.000000e+00
outer loop
vertex 1.260000e-0001 9.512274e-0002 3.951963e-0002
vertex 1.260000e-0001 1.072571e-0001 3.892351e-0002
vertex 1.260000e-0001 1.048773e-0001 3.951963e-0002
endloop
endfacet
facet normal 1.000000e+00 0.000000e+00 0.000000e+00
outer loop
vertex 1.260000e-0001 9.512274e-0002 3.951963e-0002
vertex 1.260000e-0001 1.048773e-0001 3.951963e-0002
vertex 1.260000e-0001 9.754957e-0002 3.987962e-0002
endloop
endfacet
facet normal 1.000000e+00 -0.000000e+00 0.000000e+00
outer loop
vertex 1.260000e-0001 9.754957e-0002 3.987962e-0002
vertex 1.260000e-0001 1.048773e-0001 3.951963e-0002
vertex 1.260000e-0001 1.024504e-0001 3.987962e-0002
endloop
endfacet
facet normal 1.000000e+00 0.000000e+00 0.000000e+00
outer loop
vertex 1.260000e-0001 9.754957e-0002 3.987962e-0002
vertex 1.260000e-0001 1.024504e-0001 3.987962e-0002
vertex 1.260000e-0001 1.000000e-0001 4.000000e-0002
endloop
endfacet
facet normal 1.000000e+00 0.000000e+00 0.000000e+00
outer loop
vertex 1.260000e-0001 1.248796e-0001 1.254957e-0002
vertex 1.260000e-0001 7.512038e-0002 1.254957e-0002
vertex 1.260000e-0001 1.245196e-0001 1.012274e-0002
endloop
endfacet
facet normal 1.000000e+00 0.000000e+00 0.000000e+00
outer loop
vertex 1.260000e-0001 1.245196e-0001 1.012274e-0002
vertex 1.260000e-0001 7.512038e-0002 1.254957e-0002
vertex 1.260000e-0001 7.548037e-0002 1.012274e-0002
endloop
endfacet
facet normal 1.000000e+00 0.000000e+00 0.000000e+00
outer loop
vertex 1.260000e-0001 1.245196e-0001 1.012274e-0002
vertex 1.260000e-0001 7.548037e-0002 1.012274e-0002
vertex 1.260000e-0001 1.239235e-0001 7.742883e-0003
endloop
endfacet
facet normal 1.000000e+00 0.000000e+00 0.000000e+00
outer loop
vertex 1.260000e-0001 1.239235e-0001 7.742883e-0003
vertex 1.260000e-0001 7.548037e-0002 1.012274e-0002
vertex 1.260000e-0001 7.607649e-0002 7.742883e-0003
endloop
endfacet
facet normal 1.000000e+00 0.000000e+00 0.000000e+00
outer loop
vertex 1.260000e-0001 1.239235e-0001 7.742883e-0003
vertex 1.260000e-0001 7.607649e-0002 7.742883e-0003
vertex 1.260000e-0001 1.230970e-0001 5.432914e-0003
endloop
endfacet
facet normal 1.000000e+00 0.000000e+00 0.000000e+00
outer loop
vertex 1.260000e-0001 1.230970e-0001 5.432914e-0003
vertex 1.260000e-0001 7.607649e-0002 7.742883e-0003
vertex 1.260000e-0001 7.690301e-0002 5.432914e-0003
endloop
endfacet
facet normal 1.000000e+00 0.000000e+00 0.000000e+00
outer loop
vertex 1.260000e-0001 1.230970e-0001 5.432914e-0003
vertex 1.260000e-0001 7.690301e-0002 5.432914e-0003
vertex 1.260000e-0001 1.220480e-0001 3.215082e-0003
endloop
endfacet
facet normal 1.000000e+00 0.000000e+00 0.000000e+00
outer loop
vertex 1.260000e-0001 1.220480e-0001 3.215082e-0003
vertex 1.260000e-0001 7.690301e-0002 5.432914e-0003
vertex 1.260000e-0001 7.795197e-0002 3.215082e-0003
endloop
endfacet
facet normal 1.000000e+00 0.000000e+00 0.000000e+00
outer loop
vertex 1.260000e-0001 1.220480e-0001 3.215082e-0003
vertex 1.260000e-0001 7.795197e-0002 3.215082e-0003
vertex 1.260000e-0001 1.207867e-0001 1.110744e-0003
endloop
endfacet
facet normal 1.000000e+00 0.000000e+00 0.000000e+00
outer loop
vertex 1.260000e-0001 1.207867e-0001 1.110744e-0003
vertex 1.260000e-0001 7.795197e-0002 3.215082e-0003
vertex 1.260000e-0001 7.921326e-0002 1.110744e-0003
endloop
endfacet
facet normal 1.000000e+00 0.000000e+00 0.000000e+00
outer loop
vertex 1.260000e-0001 1.207867e-0001 1.110744e-0003
vertex 1.260000e-0001 7.921326e-0002 1.110744e-0003
vertex 1.260000e-0001 1.193253e-0001 -8.598321e-004
endloop
endfacet
facet normal 1.000000e+00 0.000000e+00 0.000000e+00
outer loop
vertex 1.260000e-0001 1.193253e-0001 -8.598321e-004
vertex 1.260000e-0001 7.921326e-0002 1.110744e-0003
vertex 1.260000e-0001 8.067474e-0002 -8.598321e-004
endloop
endfacet
facet normal 1.000000e+00 0.000000e+00 0.000000e+00
outer loop
vertex 1.260000e-0001 1.193253e-0001 -8.598321e-004
vertex 1.260000e-0001 8.067474e-0002 -8.598321e-004
vertex 1.260000e-0001 1.176777e-0001 -2.677670e-003
endloop
endfacet
facet normal 1.000000e+00 0.000000e+00 0.000000e+00
outer loop
vertex 1.260000e-0001 1.176777e-0001 -2.677670e-003
vertex 1.260000e-0001 8.067474e-0002 -8.598321e-004
vertex 1.260000e-0001 8.232233e-0002 -2.677670e-003
endloop
endfacet
facet normal 1.000000e+00 0.000000e+00 0.000000e+00
outer loop
vertex 1.260000e-0001 1.176777e-0001 -2.677670e-003
vertex 1.260000e-0001 8.232233e-0002 -2.677670e-003
vertex 1.260000e-0001 1.158598e-0001 -4.325261e-003
endloop
endfacet
facet normal 1.000000e+00 0.000000e+00 0.000000e+00
outer loop
vertex 1.260000e-0001 1.158598e-0001 -4.325261e-003
vertex 1.260000e-0001 8.232233e-0002 -2.677670e-003
vertex 1.260000e-0001 8.414017e-0002 -4.325261e-003
endloop
endfacet
facet normal 1.000000e+00 0.000000e+00 0.000000e+00
outer loop
vertex 1.260000e-0001 1.158598e-0001 -4.325261e-003
vertex 1.260000e-0001 8.414017e-0002 -4.325261e-003
vertex 1.260000e-0001 1.138893e-0001 -5.786740e-003
endloop
endfacet
facet normal 1.000000e+00 0.000000e+00 0.000000e+00
outer loop
vertex 1.260000e-0001 1.138893e-0001 -5.786740e-003
vertex 1.260000e-0001 8.414017e-0002 -4.325261e-003
vertex 1.260000e-0001 8.611074e-0002 -5.786740e-003
endloop
endfacet
facet normal 1.000000e+00 0.000000e+00 0.000000e+00
outer loop
vertex 1.260000e-0001 1.138893e-0001 -5.786740e-003
vertex 1.260000e-0001 8.611074e-0002 -5.786740e-003
vertex 1.260000e-0001 1.117849e-0001 -7.048032e-003
endloop
endfacet
facet normal 1.000000e+00 0.000000e+00 0.000000e+00
outer loop
vertex 1.260000e-0001 1.117849e-0001 -7.048032e-003
vertex 1.260000e-0001 8.611074e-0002 -5.786740e-003
vertex 1.260000e-0001 8.821508e-0002 -7.048032e-003
endloop
endfacet
facet normal 1.000000e+00 0.000000e+00 0.000000e+00
outer loop
vertex 1.260000e-0001 1.117849e-0001 -7.048032e-003
vertex 1.260000e-0001 8.821508e-0002 -7.048032e-003
vertex 1.260000e-0001 1.095671e-0001 -8.096988e-003
endloop
endfacet
facet normal 1.000000e+00 0.000000e+00 0.000000e+00
outer loop
vertex 1.260000e-0001 1.095671e-0001 -8.096988e-003
vertex 1.260000e-0001 8.821508e-0002 -7.048032e-003
vertex 1.260000e-0001 9.043291e-0002 -8.096988e-003
endloop
endfacet
facet normal 1.000000e+00 0.000000e+00 0.000000e+00
outer loop
vertex 1.260000e-0001 1.095671e-0001 -8.096988e-003
vertex 1.260000e-0001 9.043291e-0002 -8.096988e-003
vertex 1.260000e-0001 1.072571e-0001 -8.923508e-003
endloop
endfacet
facet normal 1.000000e+00 0.000000e+00 0.000000e+00
outer loop
vertex 1.260000e-0001 1.072571e-0001 -8.923508e-003
vertex 1.260000e-0001 9.043291e-0002 -8.096988e-003
vertex 1.260000e-0001 9.274288e-0002 -8.923508e-003
endloop
endfacet
facet normal 1.000000e+00 0.000000e+00 0.000000e+00
outer loop
vertex 1.260000e-0001 1.072571e-0001 -8.923508e-003
vertex 1.260000e-0001 9.274288e-0002 -8.923508e-003
vertex 1.260000e-0001 1.048773e-0001 -9.519632e-003
endloop
endfacet
facet normal 1.000000e+00 0.000000e+00 0.000000e+00
outer loop
vertex 1.260000e-0001 1.048773e-0001 -9.519632e-003
vertex 1.260000e-0001 9.274288e-0002 -8.923508e-003
vertex 1.260000e-0001 9.512274e-0002 -9.519632e-003
endloop
endfacet
facet normal 1.000000e+00 0.000000e+00 0.000000e+00
outer loop
vertex 1.260000e-0001 1.048773e-0001 -9.519632e-003
vertex 1.260000e-0001 9.512274e-0002 -9.519632e-003
vertex 1.260000e-0001 1.024504e-0001 -9.879618e-003
endloop
endfacet
facet normal 1.000000e+00 0.000000e+00 0.000000e+00
outer loop
vertex 1.260000e-0001 1.024504e-0001 -9.879618e-003
vertex 1.260000e-0001 9.512274e-0002 -9.519632e-003
vertex 1.260000e-0001 9.754957e-0002 -9.879618e-003
endloop
endfacet
facet normal 1.000000e+00 0.000000e+00 0.000000e+00
outer loop
vertex 1.260000e-0001 1.024504e-0001 -9.879618e-003
vertex 1.260000e-0001 9.754957e-0002 -9.879618e-003
vertex 1.260000e-0001 1.000000e-0001 -1.000000e-002
endloop
endfacet
facet normal -1.000000e+00 0.000000e+00 -0.000000e+00
outer loop
vertex 9.400000e-0002 7.512038e-0002 1.745043e-0002
vertex 9.400000e-0002 1.248796e-0001 1.745043e-0002
vertex 9.400000e-0002 7.500000e-0002 1.500000e-0002
endloop
endfacet
facet normal -1.000000e+00 0.000000e+00 0.000000e+00
outer loop
vertex 9.400000e-0002 7.500000e-0002 1.500000e-0002
vertex 9.400000e-0002 1.248796e-0001 1.745043e-0002
vertex 9.400000e-0002 1.250000e-0001 1.500000e-0002
endloop
endfacet
facet normal -1.000000e+00 0.000000e+00 0.000000e+00
outer loop
vertex 9.400000e-0002 7.500000e-0002 1.500000e-0002
vertex 9.400000e-0002 1.250000e-0001 1.500000e-0002
vertex 9.400000e-0002 7.512038e-0002 1.254957e-0002
endloop
endfacet
facet normal -1.000000e+00 0.000000e+00 0.000000e+00
outer loop
vertex 9.400000e-0002 7.512038e-0002 1.254957e-0002
vertex 9.400000e-0002 1.250000e-0001 1.500000e-0002
vertex 9.400000e-0002 1.248796e-0001 1.254957e-0002
endloop
endfacet
facet normal -1.000000e+00 0.000000e+00 0.000000e+00
outer loop
vertex 9.400000e-0002 7.512038e-0002 1.254957e-0002
vertex 9.400000e-0002 1.248796e-0001 1.254957e-0002
vertex 9.400000e-0002 7.548037e-0002 1.012274e-0002
endloop
endfacet
facet normal -1.000000e+00 0.000000e+00 0.000000e+00
outer loop
vertex 9.400000e-0002 7.548037e-0002 1.012274e-0002
vertex 9.400000e-0002 1.248796e-0001 1.254957e-0002
vertex 9.400000e-0002 1.245196e-0001 1.012274e-0002
endloop
endfacet
facet normal -1.000000e+00 0.000000e+00 0.000000e+00
outer loop
vertex 9.400000e-0002 7.548037e-0002 1.012274e-0002
vertex 9.400000e-0002 1.245196e-0001 1.012274e-0002
vertex 9.400000e-0002 7.607649e-0002 7.742883e-0003
endloop
endfacet
facet normal -1.000000e+00 0.000000e+00 0.000000e+00
outer loop
vertex 9.400000e-0002 7.607649e-0002 7.742883e-0003
vertex 9.400000e-0002 1.245196e-0001 1.012274e-0002
vertex 9.400000e-0002 1.239235e-0001 7.742883e-0003
endloop
endfacet
facet normal -1.000000e+00 0.000000e+00 0.000000e+00
outer loop
vertex 9.400000e-0002 7.607649e-0002 7.742883e-0003
vertex 9.400000e-0002 1.239235e-0001 7.742883e-0003
vertex 9.400000e-0002 7.690301e-0002 5.432914e-0003
endloop
endfacet
facet normal -1.000000e+00 0.000000e+00 0.000000e+00
outer loop
vertex 9.400000e-0002 7.690301e-0002 5.432914e-0003
vertex 9.400000e-0002 1.239235e-0001 7.742883e-0003
vertex 9.400000e-0002 1.230970e-0001 5.432914e-0003
endloop
endfacet
facet normal -1.000000e+00 0.000000e+00 0.000000e+00
outer loop
vertex 9.400000e-0002 7.690301e-0002 5.432914e-0003
vertex 9.400000e-0002 1.230970e-0001 5.432914e-0003
vertex 9.400000e-0002 7.795197e-0002 3.215082e-0003
endloop
endfacet
facet normal -1.000000e+00 0.000000e+00 0.000000e+00
outer loop
vertex 9.400000e-0002 7.795197e-0002 3.215082e-0003
vertex 9.400000e-0002 1.230970e-0001 5.432914e-0003
vertex 9.400000e-0002 1.220480e-0001 3.215082e-0003
endloop
endfacet
facet normal -1.000000e+00 0.000000e+00 0.000000e+00
outer loop
vertex 9.400000e-0002 7.795197e-0002 3.215082e-0003
vertex 9.400000e-0002 1.220480e-0001 3.215082e-0003
vertex 9.400000e-0002 7.921326e-0002 1.110744e-0003
endloop
endfacet
facet normal -1.000000e+00 0.000000e+00 0.000000e+00
outer loop
vertex 9.400000e-0002 7.921326e-0002 1.110744e-0003
vertex 9.400000e-0002 1.220480e-0001 3.215082e-0003
vertex 9.400000e-0002 1.207867e-0001 1.110744e-0003
endloop
endfacet
facet normal -1.000000e+00 0.000000e+00 0.000000e+00
outer loop
vertex 9.400000e-0002 7.921326e-0002 1.110744e-0003
vertex 9.400000e-0002 1.207867e-0001 1.110744e-0003
vertex 9.400000e-0002 8.067474e-0002 -8.598321e-004
endloop
endfacet
facet normal -1.000000e+00 0.000000e+00 0.000000e+00
outer loop
vertex 9.400000e-0002 8.067474e-0002 -8.598321e-004
vertex 9.400000e-0002 1.207867e-0001 1.110744e-0003
vertex 9.400000e-0002 1.193253e-0001 -8.598321e-004
endloop
endfacet
facet normal -1.000000e+00 0.000000e+00 0.000000e+00
outer loop
vertex 9.400000e-0002 8.067474e-0002 -8.598321e-004
vertex 9.400000e-0002 1.193253e-0001 -8.598321e-004
vertex 9.400000e-0002 8.232233e-0002 -2.677670e-003
endloop
endfacet
facet normal -1.000000e+00 0.000000e+00 0.000000e+00
outer loop
vertex 9.400000e-0002 8.232233e-0002 -2.677670e-003
vertex 9.400000e-0002 1.193253e-0001 -8.598321e-004
vertex 9.400000e-0002 1.176777e-0001 -2.677670e-003
endloop
endfacet
facet normal -1.000000e+00 0.000000e+00 0.000000e+00
outer loop
vertex 9.400000e-0002 8.232233e-0002 -2.677670e-003
vertex 9.400000e-0002 1.176777e-0001 -2.677670e-003
vertex 9.400000e-0002 8.414017e-0002 -4.325261e-003
endloop
endfacet
facet normal -1.000000e+00 0.000000e+00 0.000000e+00
outer loop
vertex 9.400000e-0002 8.414017e-0002 -4.325261e-003
vertex 9.400000e-0002 1.176777e-0001 -2.677670e-003
vertex 9.400000e-0002 1.158598e-0001 -4.325261e-003
endloop
endfacet
facet normal -1.000000e+00 0.000000e+00 0.000000e+00
outer loop
vertex 9.400000e-0002 8.414017e-0002 -4.325261e-003
vertex 9.400000e-0002 1.158598e-0001 -4.325261e-003
vertex 9.400000e-0002 8.611074e-0002 -5.786740e-003
endloop
endfacet
facet normal -1.000000e+00 0.000000e+00 0.000000e+00
outer loop
vertex 9.400000e-0002 8.611074e-0002 -5.786740e-003
vertex 9.400000e-0002 1.158598e-0001 -4.325261e-003
vertex 9.400000e-0002 1.138893e-0001 -5.786740e-003
endloop
endfacet
facet normal -1.000000e+00 0.000000e+00 0.000000e+00
outer loop
vertex 9.400000e-0002 8.611074e-0002 -5.786740e-003
vertex 9.400000e-0002 1.138893e-0001 -5.786740e-003
vertex 9.400000e-0002 8.821508e-0002 -7.048032e-003
endloop
endfacet
facet normal -1.000000e+00 0.000000e+00 0.000000e+00
outer loop
vertex 9.400000e-0002 8.821508e-0002 -7.048032e-003
vertex 9.400000e-0002 1.138893e-0001 -5.786740e-003
vertex 9.400000e-0002 1.117849e-0001 -7.048032e-003
endloop
endfacet
facet normal -1.000000e+00 0.000000e+00 0.000000e+00
outer loop
vertex 9.400000e-0002 8.821508e-0002 -7.048032e-003
vertex 9.400000e-0002 1.117849e-0001 -7.048032e-003
vertex 9.400000e-0002 9.043291e-0002 -8.096988e-003
endloop
endfacet
facet normal -1.000000e+00 0.000000e+00 0.000000e+00
outer loop
vertex 9.400000e-0002 9.043291e-0002 -8.096988e-003
vertex 9.400000e-0002 1.117849e-0001 -7.048032e-003
vertex 9.400000e-0002 1.095671e-0001 -8.096988e-003
endloop
endfacet
facet normal -1.000000e+00 0.000000e+00 0.000000e+00
outer loop
vertex 9.400000e-0002 9.043291e-0002 -8.096988e-003
vertex 9.400000e-0002 1.095671e-0001 -8.096988e-003
vertex 9.400000e-0002 9.274288e-0002 -8.923508e-003
endloop
endfacet
facet normal -1.000000e+00 0.000000e+00 0.000000e+00
outer loop
vertex 9.400000e-0002 9.274288e-0002 -8.923508e-003
vertex 9.400000e-0002 1.095671e-0001 -8.096988e-003
vertex 9.400000e-0002 1.072571e-0001 -8.923508e-003
endloop
endfacet
facet normal -1.000000e+00 0.000000e+00 0.000000e+00
outer loop
vertex 9.400000e-0002 9.274288e-0002 -8.923508e-003
vertex 9.400000e-0002 1.072571e-0001 -8.923508e-003
vertex 9.400000e-0002 9.512274e-0002 -9.519632e-003
endloop
endfacet
facet normal -1.000000e+00 0.000000e+00 0.000000e+00
outer loop
vertex 9.400000e-0002 9.512274e-0002 -9.519632e-003
vertex 9.400000e-0002 1.072571e-0001 -8.923508e-003
vertex 9.400000e-0002 1.048773e-0001 -9.519632e-003
endloop
endfacet
facet normal -1.000000e+00 0.000000e+00 0.000000e+00
outer loop
vertex 9.400000e-0002 9.512274e-0002 -9.519632e-003
vertex 9.400000e-0002 1.048773e-0001 -9.519632e-003
vertex 9.400000e-0002 9.754957e-0002 -9.879618e-003
endloop
endfacet
facet normal -1.000000e+00 0.000000e+00 0.000000e+00
outer loop
vertex 9.400000e-0002 9.754957e-0002 -9.879618e-003
vertex 9.400000e-0002 1.048773e-0001 -9.519632e-003
vertex 9.400000e-0002 1.024504e-0001 -9.879618e-003
endloop
endfacet
facet normal -1.000000e+00 0.000000e+00 0.000000e+00
outer loop
vertex 9.400000e-0002 9.754957e-0002 -9.879618e-003
vertex 9.400000e-0002 1.024504e-0001 -9.879618e-003
vertex 9.400000e-0002 1.000000e-0001 -1.000000e-002
endloop
endfacet
facet normal -1.000000e+00 -0.000000e+00 0.000000e+00
outer loop
vertex 9.400000e-0002 1.248796e-0001 1.745043e-0002
vertex 9.400000e-0002 7.512038e-0002 1.745043e-0002
vertex 9.400000e-0002 1.245196e-0001 1.987726e-0002
endloop
endfacet
facet normal -1.000000e+00 -0.000000e+00 0.000000e+00
outer loop
vertex 9.400000e-0002 1.245196e-0001 1.987726e-0002
vertex 9.400000e-0002 7.512038e-0002 1.745043e-0002
vertex 9.400000e-0002 7.548037e-0002 1.987726e-0002
endloop
endfacet
facet normal -1.000000e+00 0.000000e+00 0.000000e+00
outer loop
vertex 9.400000e-0002 1.245196e-0001 1.987726e-0002
vertex 9.400000e-0002 7.548037e-0002 1.987726e-0002
vertex 9.400000e-0002 1.239235e-0001 2.225712e-0002
endloop
endfacet
facet normal -1.000000e+00 -0.000000e+00 0.000000e+00
outer loop
vertex 9.400000e-0002 1.239235e-0001 2.225712e-0002
vertex 9.400000e-0002 7.548037e-0002 1.987726e-0002
vertex 9.400000e-0002 7.607649e-0002 2.225712e-0002
endloop
endfacet
facet normal -1.000000e+00 0.000000e+00 0.000000e+00
outer loop
vertex 9.400000e-0002 1.239235e-0001 2.225712e-0002
vertex 9.400000e-0002 7.607649e-0002 2.225712e-0002
vertex 9.400000e-0002 1.230970e-0001 2.456709e-0002
endloop
endfacet
facet normal -1.000000e+00 -0.000000e+00 0.000000e+00
outer loop
vertex 9.400000e-0002 1.230970e-0001 2.456709e-0002
vertex 9.400000e-0002 7.607649e-0002 2.225712e-0002
vertex 9.400000e-0002 7.690301e-0002 2.456709e-0002
endloop
endfacet
facet normal -1.000000e+00 0.000000e+00 0.000000e+00
outer loop
vertex 9.400000e-0002 1.230970e-0001 2.456709e-0002
vertex 9.400000e-0002 7.690301e-0002 2.456709e-0002
vertex 9.400000e-0002 1.220480e-0001 2.678492e-0002
endloop
endfacet
facet normal -1.000000e+00 -0.000000e+00 0.000000e+00
outer loop
vertex 9.400000e-0002 1.220480e-0001 2.678492e-0002
vertex 9.400000e-0002 7.690301e-0002 2.456709e-0002
vertex 9.400000e-0002 7.795197e-0002 2.678492e-0002
endloop
endfacet
facet normal -1.000000e+00 0.000000e+00 0.000000e+00
outer loop
vertex 9.400000e-0002 1.220480e-0001 2.678492e-0002
vertex 9.400000e-0002 7.795197e-0002 2.678492e-0002
vertex 9.400000e-0002 1.207867e-0001 2.888926e-0002
endloop
endfacet
facet normal -1.000000e+00 -0.000000e+00 0.000000e+00
outer loop
vertex 9.400000e-0002 1.207867e-0001 2.888926e-0002
vertex 9.400000e-0002 7.795197e-0002 2.678492e-0002
vertex 9.400000e-0002 7.921326e-0002 2.888926e-0002
endloop
endfacet
facet normal -1.000000e+00 0.000000e+00 0.000000e+00
outer loop
vertex 9.400000e-0002 1.207867e-0001 2.888926e-0002
vertex 9.400000e-0002 7.921326e-0002 2.888926e-0002
vertex 9.400000e-0002 1.193253e-0001 3.085983e-0002
endloop
endfacet
facet normal -1.000000e+00 -0.000000e+00 0.000000e+00
outer loop
vertex 9.400000e-0002 1.193253e-0001 3.085983e-0002
vertex 9.400000e-0002 7.921326e-0002 2.888926e-0002
vertex 9.400000e-0002 8.067474e-0002 3.085983e-0002
endloop
endfacet
facet normal -1.000000e+00 0.000000e+00 0.000000e+00
outer loop
vertex 9.400000e-0002 1.193253e-0001 3.085983e-0002
vertex 9.400000e-0002 8.067474e-0002 3.085983e-0002
vertex 9.400000e-0002 1.176777e-0001 3.267767e-0002
endloop
endfacet
facet normal -1.000000e+00 -0.000000e+00 0.000000e+00
outer loop
vertex 9.400000e-0002 1.176777e-0001 3.267767e-0002
vertex 9.400000e-0002 8.067474e-0002 3.085983e-0002
vertex 9.400000e-0002 8.232233e-0002 3.267767e-0002
endloop
endfacet
facet normal -1.000000e+00 0.000000e+00 0.000000e+00
outer loop
vertex 9.400000e-0002 1.176777e-0001 3.267767e-0002
vertex 9.400000e-0002 8.232233e-0002 3.267767e-0002
vertex 9.400000e-0002 1.158598e-0001 3.432526e-0002
endloop
endfacet
facet normal -1.000000e+00 -0.000000e+00 0.000000e+00
outer loop
vertex 9.400000e-0002 1.158598e-0001 3.432526e-0002
vertex 9.400000e-0002 8.232233e-0002 3.267767e-0002
vertex 9.400000e-0002 8.414017e-0002 3.432526e-0002
endloop
endfacet
facet normal -1.000000e+00 0.000000e+00 0.000000e+00
outer loop
vertex 9.400000e-0002 1.158598e-0001 3.432526e-0002
vertex 9.400000e-0002 8.414017e-0002 3.432526e-0002
vertex 9.400000e-0002 1.138893e-0001 3.578674e-0002
endloop
endfacet
facet normal -1.000000e+00 -0.000000e+00 0.000000e+00
outer loop
vertex 9.400000e-0002 1.138893e-0001 3.578674e-0002
vertex 9.400000e-0002 8.414017e-0002 3.432526e-0002
vertex 9.400000e-0002 8.611074e-0002 3.578674e-0002
endloop
endfacet
facet normal -1.000000e+00 0.000000e+00 0.000000e+00
outer loop
vertex 9.400000e-0002 1.138893e-0001 3.578674e-0002
vertex 9.400000e-0002 8.611074e-0002 3.578674e-0002
vertex 9.400000e-0002 1.117849e-0001 3.704803e-0002
endloop
endfacet
facet normal -1.000000e+00 -0.000000e+00 0.000000e+00
outer loop
vertex 9.400000e-0002 1.117849e-0001 3.704803e-0002
vertex 9.400000e-0002 8.611074e-0002 3.578674e-0002
vertex 9.400000e-0002 8.821508e-0002 3.704803e-0002
endloop
endfacet
facet normal -1.000000e+00 0.000000e+00 0.000000e+00
outer loop
vertex 9.400000e-0002 1.117849e-0001 3.704803e-0002
vertex 9.400000e-0002 8.821508e-0002 3.704803e-0002
vertex 9.400000e-0002 1.095671e-0001 3.809699e-0002
endloop
endfacet
facet normal -1.000000e+00 -0.000000e+00 0.000000e+00
outer loop
vertex 9.400000e-0002 1.095671e-0001 3.809699e-0002
vertex 9.400000e-0002 8.821508e-0002 3.704803e-0002
vertex 9.400000e-0002 9.043291e-0002 3.809699e-0002
endloop
endfacet
facet normal -1.000000e+00 0.000000e+00 0.000000e+00
outer loop
vertex 9.400000e-0002 1.095671e-0001 3.809699e-0002
vertex 9.400000e-0002 9.043291e-0002 3.809699e-0002
vertex 9.400000e-0002 1.072571e-0001 3.892351e-0002
endloop
endfacet
facet normal -1.000000e+00 -0.000000e+00 0.000000e+00
outer loop
vertex 9.400000e-0002 1.072571e-0001 3.892351e-0002
vertex 9.400000e-0002 9.043291e-0002 3.809699e-0002
vertex 9.400000e-0002 9.274288e-0002 3.892351e-0002
endloop
endfacet
facet normal -1.000000e+00 0.000000e+00 0.000000e+00
outer loop
vertex 9.400000e-0002 1.072571e-0001 3.892351e-0002
vertex 9.400000e-0002 9.274288e-0002 3.892351e-0002
vertex 9.400000e-0002 1.048773e-0001 3.951963e-0002
endloop
endfacet
facet normal -1.000000e+00 -0.000000e+00 0.000000e+00
outer loop
vertex 9.400000e-0002 1.048773e-0001 3.951963e-0002
vertex 9.400000e-0002 9.274288e-0002 3.892351e-0002
vertex 9.400000e-0002 9.512274e-0002 3.951963e-0002
endloop
endfacet
facet normal -1.000000e+00 0.000000e+00 0.000000e+00
outer loop
vertex 9.400000e-0002 1.048773e-0001 3.951963e-0002
vertex 9.400000e-0002 9.512274e-0002 3.951963e-0002
vertex 9.400000e-0002 1.024504e-0001 3.987962e-0002
endloop
endfacet
facet normal -1.000000e+00 -0.000000e+00 0.000000e+00
outer loop
vertex 9.400000e-0002 1.024504e-0001 3.987962e-0002
vertex 9.400000e-0002 9.512274e-0002 3.951963e-0002
vertex 9.400000e-0002 9.754957e-0002 3.987962e-0002
endloop
endfacet
facet normal -1.000000e+00 0.000000e+00 0.000000e+00
outer loop
vertex 9.400000e-0002 1.024504e-0001 3.987962e-0002
vertex 9.400000e-0002 9.754957e-0002 3.987962e-0002
vertex 9.400000e-0002 1.000000e-0001 4.000000e-0002
endloop
endfacet
endsolid
