solid ASCII
facet normal 0.000000e+00 -1.000000e+00 1.184238e-16
outer loop
vertex -7.600000e-002 -1.150000e-001 1.408344e-1017
vertex 7.600000e-0002 -1.150000e-001 1.408344e-1017
vertex -7.600000e-002 -1.150000e-001 1.200000e-0001
endloop
endfacet
facet normal 0.000000e+00 -1.000000e+00 1.184238e-16
outer loop
vertex -7.600000e-002 -1.150000e-001 1.200000e-0001
vertex 7.600000e-0002 -1.150000e-001 1.408344e-1017
vertex 7.600000e-0002 -1.150000e-001 1.200000e-0001
endloop
endfacet
facet normal -1.000000e+00 0.000000e+00 0.000000e+00
outer loop
vertex -7.600000e-002 1.150000e-0001 -1.408344e-017
vertex -7.600000e-002 -1.150000e-001 1.408344e-1017
vertex -7.600000e-002 1.150000e-0001 1.200000e-0001
endloop
endfacet
facet normal -1.000000e+00 -0.000000e+00 0.000000e+00
outer loop
vertex -7.600000e-002 1.150000e-0001 1.200000e-0001
vertex -7.600000e-002 -1.150000e-001 1.408344e-1017
vertex -7.600000e-002 -1.150000e-001 1.200000e-0001
endloop
endfacet
facet normal 0.000000e+00 1.000000e+00 -0.000000e+00
outer loop
vertex 7.600000e-0002 1.150000e-0001 -1.408344e-017
vertex -7.600000e-002 1.150000e-0001 -1.408344e-017
vertex 7.600000e-0002 1.150000e-0001 1.200000e-0001
endloop
endfacet
facet normal 0.000000e+00 1.000000e+00 0.000000e+00
outer loop
vertex 7.600000e-0002 1.150000e-0001 1.200000e-0001
vertex -7.600000e-002 1.150000e-0001 -1.408344e-017
vertex -7.600000e-002 1.150000e-0001 1.200000e-0001
endloop
endfacet
facet normal 1.000000e+00 -0.000000e+00 0.000000e+00
outer loop
vertex 7.600000e-0002 -1.150000e-001 1.408344e-1017
vertex 7.600000e-0002 1.150000e-0001 -1.408344e-017
vertex 7.600000e-0002 -1.150000e-001 1.200000e-0001
endloop
endfacet
facet normal 1.000000e+00 0.000000e+00 0.000000e+00
outer loop
vertex 7.600000e-0002 -1.150000e-001 1.200000e-0001
vertex 7.600000e-0002 1.150000e-0001 -1.408344e-017
vertex 7.600000e-0002 1.150000e-0001 1.200000e-0001
endloop
endfacet
facet normal 0.000000e+00 1.235726e-16 1.000000e+00
outer loop
vertex 7.600000e-0002 1.150000e-0001 1.200000e-0001
vertex -7.600000e-002 1.150000e-0001 1.200000e-0001
vertex 7.600000e-0002 -1.150000e-001 1.200000e-0001
endloop
endfacet
facet normal 0.000000e+00 1.235726e-16 1.000000e+00
outer loop
vertex 7.600000e-0002 -1.150000e-001 1.200000e-0001
vertex -7.600000e-002 1.150000e-0001 1.200000e-0001
vertex -7.600000e-002 -1.150000e-001 1.200000e-0001
endloop
endfacet
facet normal -0.000000e+00 -1.224647e-16 -1.000000e+00
outer loop
vertex 7.600000e-0002 -1.150000e-001 1.408344e-1017
vertex -7.600000e-002 -1.150000e-001 1.408344e-1017
vertex 7.600000e-0002 1.150000e-0001 -1.408344e-017
endloop
endfacet
facet normal -0.000000e+00 -1.224647e-16 -1.000000e+00
outer loop
vertex 7.600000e-0002 1.150000e-0001 -1.408344e-017
vertex -7.600000e-002 -1.150000e-001 1.408344e-1017
vertex -7.600000e-002 1.150000e-0001 -1.408344e-017
endloop
endfacet
endsolid
