solid ASCII
  facet normal 0.000000e+00 -1.000000e+00 0.000000e+00
    outer loop
      vertex   -7.600000e+01 -1.150000e+02 1.408344e-14
      vertex   7.600000e+01 -1.150000e+02 1.408344e-14
      vertex   -7.600000e+01 -1.150000e+02 6.000000e+01
    endloop
  endfacet
  facet normal 0.000000e+00 -1.000000e+00 0.000000e+00
    outer loop
      vertex   -7.600000e+01 -1.150000e+02 6.000000e+01
      vertex   7.600000e+01 -1.150000e+02 1.408344e-14
      vertex   7.600000e+01 -1.150000e+02 6.000000e+01
    endloop
  endfacet
  facet normal -1.000000e+00 0.000000e+00 0.000000e+00
    outer loop
      vertex   -7.600000e+01 1.150000e+02 -1.408344e-14
      vertex   -7.600000e+01 -1.150000e+02 1.408344e-14
      vertex   -7.600000e+01 1.150000e+02 6.000000e+01
    endloop
  endfacet
  facet normal -1.000000e+00 -0.000000e+00 0.000000e+00
    outer loop
      vertex   -7.600000e+01 1.150000e+02 6.000000e+01
      vertex   -7.600000e+01 -1.150000e+02 1.408344e-14
      vertex   -7.600000e+01 -1.150000e+02 6.000000e+01
    endloop
  endfacet
  facet normal 0.000000e+00 1.000000e+00 -0.000000e+00
    outer loop
      vertex   7.600000e+01 1.150000e+02 -1.408344e-14
      vertex   -7.600000e+01 1.150000e+02 -1.408344e-14
      vertex   7.600000e+01 1.150000e+02 6.000000e+01
    endloop
  endfacet
  facet normal 0.000000e+00 1.000000e+00 0.000000e+00
    outer loop
      vertex   7.600000e+01 1.150000e+02 6.000000e+01
      vertex   -7.600000e+01 1.150000e+02 -1.408344e-14
      vertex   -7.600000e+01 1.150000e+02 6.000000e+01
    endloop
  endfacet
  facet normal 1.000000e+00 -0.000000e+00 0.000000e+00
    outer loop
      vertex   7.600000e+01 -1.150000e+02 1.408344e-14
      vertex   7.600000e+01 1.150000e+02 -1.408344e-14
      vertex   7.600000e+01 -1.150000e+02 6.000000e+01
    endloop
  endfacet
  facet normal 1.000000e+00 0.000000e+00 0.000000e+00
    outer loop
      vertex   7.600000e+01 -1.150000e+02 6.000000e+01
      vertex   7.600000e+01 1.150000e+02 -1.408344e-14
      vertex   7.600000e+01 1.150000e+02 6.000000e+01
    endloop
  endfacet
  facet normal 0.000000e+00 9.267949e-17 1.000000e+00
    outer loop
      vertex   7.600000e+01 1.150000e+02 6.000000e+01
      vertex   -7.600000e+01 1.150000e+02 6.000000e+01
      vertex   7.600000e+01 -1.150000e+02 6.000000e+01
    endloop
  endfacet
  facet normal 0.000000e+00 9.267949e-17 1.000000e+00
    outer loop
      vertex   7.600000e+01 -1.150000e+02 6.000000e+01
      vertex   -7.600000e+01 1.150000e+02 6.000000e+01
      vertex   -7.600000e+01 -1.150000e+02 6.000000e+01
    endloop
  endfacet
  facet normal -0.000000e+00 -1.224647e-16 -1.000000e+00
    outer loop
      vertex   7.600000e+01 -1.150000e+02 1.408344e-14
      vertex   -7.600000e+01 -1.150000e+02 1.408344e-14
      vertex   7.600000e+01 1.150000e+02 -1.408344e-14
    endloop
  endfacet
  facet normal -0.000000e+00 -1.224647e-16 -1.000000e+00
    outer loop
      vertex   7.600000e+01 1.150000e+02 -1.408344e-14
      vertex   -7.600000e+01 -1.150000e+02 1.408344e-14
      vertex   -7.600000e+01 1.150000e+02 -1.408344e-14
    endloop
  endfacet
endsolid
